<svg width="16" height="16" fill="none" xmlns="http://www.w3.org/2000/svg"><g clip-path="url(#a)"><path d="M8.158 16h-.16a55.66 55.66 0 0 1-3.54-.098c-1.033-.063-1.976-.42-2.727-1.032-.725-.591-1.22-1.39-1.471-2.375-.22-.858-.23-1.7-.242-2.513C.01 9.397.002 8.705 0 8.002c.002-.707.01-1.4.018-1.984.011-.814.023-1.655.242-2.513.25-.985.746-1.784 1.47-2.375C2.483.518 3.426.16 4.46.098 5.586.029 6.745-.002 8.002 0a55.977 55.977 0 0 1 3.54.098c1.033.062 1.976.42 2.727 1.032.725.591 1.22 1.39 1.472 2.375.218.858.23 1.7.24 2.513.009.585.017 1.277.019 1.98v.003c-.002.704-.01 1.396-.018 1.98-.011.815-.023 1.656-.241 2.514-.252.985-.747 1.784-1.472 2.375-.751.612-1.694.97-2.727 1.032A55.31 55.31 0 0 1 8.158 16Zm-.16-1.25a54.58 54.58 0 0 0 3.468-.095c.78-.048 1.458-.301 2.013-.754.513-.418.867-.995 1.05-1.715.182-.714.193-1.48.203-2.222.008-.58.016-1.267.018-1.964-.002-.697-.01-1.384-.018-1.965-.01-.74-.02-1.507-.203-2.22-.184-.72-.537-1.298-1.05-1.716-.555-.453-1.232-.706-2.013-.754A54.619 54.619 0 0 0 8 1.25a54.469 54.469 0 0 0-3.467.095c-.78.048-1.458.301-2.013.754-.513.418-.867.995-1.05 1.715-.182.714-.193 1.48-.203 2.221-.008.581-.016 1.269-.018 1.966.002.695.01 1.383.018 1.963.01.742.02 1.508.203 2.222.183.72.537 1.297 1.05 1.715.555.453 1.232.706 2.013.754 1.1.067 2.234.098 3.464.095Zm-.03-2.844A3.91 3.91 0 0 1 4.063 8 3.91 3.91 0 0 1 7.97 4.094 3.91 3.91 0 0 1 11.875 8a3.91 3.91 0 0 1-3.906 3.906Zm0-6.562A2.66 2.66 0 0 0 5.313 8a2.66 2.66 0 0 0 2.657 2.656A2.66 2.66 0 0 0 10.625 8a2.66 2.66 0 0 0-2.656-2.656Zm4.345-2.5a.938.938 0 1 0 0 1.875.938.938 0 0 0 0-1.875Z" fill="#3C322D"/></g><defs><clipPath id="a"><path fill="#fff" d="M0 0h16v16H0z"/></clipPath></defs></svg>