<svg width="16" height="16" fill="none" xmlns="http://www.w3.org/2000/svg"><path d="M16 2.72a6.286 6.286 0 0 1-1.89.58c.68-.454 1.199-1.168 1.443-2.027a6.153 6.153 0 0 1-2.08.887C12.871 1.444 12.013 1 11.077 1 9.261 1 7.799 2.648 7.799 4.668c0 .29.022.57.076.836-2.727-.149-5.14-1.61-6.761-3.836a4.03 4.03 0 0 0-.449 1.854c0 1.27.585 2.395 1.457 3.047A2.982 2.982 0 0 1 .64 6.117v.04c0 1.783 1.137 3.263 2.628 3.604-.267.081-.558.12-.86.12-.21 0-.422-.013-.621-.062.425 1.452 1.631 2.52 3.065 2.554-1.116.976-2.533 1.564-4.067 1.564-.269 0-.527-.014-.785-.05 1.453 1.047 3.175 1.645 5.032 1.645 6.036 0 9.336-5.59 9.336-10.434 0-.162-.005-.319-.012-.474A7.022 7.022 0 0 0 16 2.72Z" fill="#3C322D"/></svg>